<svg xmlns="http://www.w3.org/2000/svg" version="1.1" xmlns:xlink="http://www.w3.org/1999/xlink" xmlns:svgjs="http://svgjs.dev/svgjs" viewBox="0 0 1422 800"><defs><filter id="uuunion-blur" x="-100%" y="-100%" width="400%" height="400%" color-interpolation-filters="sRGB">
        <feGaussianBlur in="SourceGraphic" stdDeviation="0 2" result="blur"></feGaussianBlur>
        <feDropShadow stdDeviation="19.692307692307693" in="blur" dx="16" dy="16" flood-color="hsl(230, 55%, 40%)" flood-opacity="0.4" x="0%" y="0%" width="100%" height="100%"></feDropShadow>
      </filter><filter id="uuunion-blur2" x="-100%" y="-100%" width="400%" height="400%" color-interpolation-filters="sRGB">
        <feGaussianBlur in="SourceGraphic" stdDeviation="0 2" result="blur"></feGaussianBlur>
        <feDropShadow stdDeviation="19.692307692307693" in="blur" dx="-16" dy="-16" flood-color="hsl(230, 55%, 40%)" flood-opacity="0.4" x="0%" y="0%" width="100%" height="100%"></feDropShadow>
      </filter><linearGradient gradientTransform="rotate(0, 0.5, 0.5)" x1="50%" y1="0%" x2="50%" y2="100%" id="uuunion-grad"><stop stop-color="hsl(230, 55%, 70%)" offset="10%"></stop><stop stop-color="hsl(230, 55%, 40%)" offset="90%"></stop></linearGradient><linearGradient gradientTransform="rotate(135, 0.5, 0.5)" x1="50%" y1="0%" x2="50%" y2="100%" id="uuunion-grad2"><stop stop-color="hsl(230, 55%, 70%)" offset="25%"></stop><stop stop-color="hsl(230, 55%, 40%)" offset="100%"></stop></linearGradient><linearGradient gradientTransform="rotate(333, 0.5, 0.5)" x1="50%" y1="0%" x2="50%" y2="100%" id="uuunion-grad3"><stop stop-color="hsl(230, 55%, 70%)" offset="0%"></stop><stop stop-color="hsl(230, 55%, 40%)" offset="75%"></stop></linearGradient></defs><path d="M-132.81 -86.06Q-119.78 -84.53 -106.75 -82.79 -93.72 -80.91 -80.69 -78.99 -67.66 -77.12 -54.63 -75.39 -41.6 -73.87 -28.57 -72.65 -15.54 -71.77 -2.51 -71.29 10.51 -71.22 23.54 -71.57 36.57 -72.32 49.6 -73.43 62.63 -74.86 75.66 -76.53 88.69 -78.36 101.72 -80.28 114.75 -82.18 127.78 -83.97 140.81 -85.58 153.84 -86.92 166.87 -87.93 179.9 -88.57 192.93 -88.79 205.96 -88.6 218.99 -88 232.02 -87.02 245.05 -85.7 258.08 -84.11 271.11 -82.33 284.14 -80.43 297.17 -78.52 310.2 -76.67 323.23 -74.99 336.26 -73.54 349.29 -72.39 362.32 -71.61 375.35 -71.23 388.38 -71.27 401.41 -71.72 414.44 -72.56 427.47 -73.76 440.5 -75.25 453.53 -76.97 466.56 -78.84 479.59 -80.76 492.62 -82.64 505.65 -84.4 518.68 -85.94 531.71 -87.21 544.74 -88.13 557.77 -88.66 570.8 -88.79 583.83 -88.49 596.86 -87.79 609.89 -86.72 622.92 -85.33 635.95 -83.68 648.98 -81.86 662.01 -79.95 675.04 -78.05 688.07 -76.23 701.1 -74.6 714.13 -73.22 727.16 -72.16 740.19 -71.48 753.22 -71.2 766.25 -71.34 779.28 -71.89 792.31 -72.83 805.34 -74.11 818.37 -75.66 831.4 -77.43 844.43 -79.31 857.46 -81.23 870.49 -83.09 883.52 -84.8 896.55 -86.29 909.58 -87.47 922.61 -88.3 935.64 -88.73 948.67 -88.75 961.7 -88.35 974.73 -87.56 987.76 -86.4 1000.79 -84.94 1013.82 -83.24 1026.85 -81.39 1039.88 -79.47 1052.91 -77.58 1065.94 -75.81 1078.97 -74.23 1092 -72.92 1105.03 -71.96 1118.06 -71.37 1131.09 -71.2 1144.12 -71.44 1157.15 -72.09 1170.18 -73.12 1183.21 -74.47 1196.24 -76.09 1209.27 -77.89 1222.3 -79.79 1235.33 -81.71 1248.36 -83.54 1261.39 -85.2 1274.42 -86.61 1287.45 -87.71 1300.48 -88.45 1313.51 -88.78 1326.54 -88.69 1339.57 -88.19 1352.6 -87.3 1365.63 -86.06 1378.66 -84.53 1391.69 -82.79 1404.72 -80.92 1417.75 -79 1430.78 -77.12 1443.81 -75.39 1456.85 -73.87 1469.88 -72.65 1482.91 -71.77 1495.94 -71.29 1508.97 -71.22 1522 -71.57 1535.03 -72.31 1530.63 -57.12 1531.39 -41.92 1537.21 -26.73 1547.17 -11.53 1559.75 3.66 1573.01 18.85 1584.92 34.05 1593.64 49.25 1597.83 64.44 1596.85 79.64 1590.85 94.84 1580.74 110.03 1568.09 125.23 1554.85 140.42 1543.03 155.62 1534.48 170.82 1530.49 186.01 1531.69 201.21 1537.89 216.41 1548.13 231.6 1560.85 246.8 1574.07 262 1585.78 277.19 1594.17 292.39 1597.95 307.59 1596.54 322.78 1590.15 337.98 1579.77 353.17 1566.99 368.37 1553.79 383.57 1542.18 398.76 1533.96 413.96 1530.39 429.16 1532.02 444.35 1538.6 459.55 1549.11 474.75 1561.95 489.94 1575.13 505.14 1586.62 520.33 1594.67 535.53 1598.03 550.73 1596.19 565.92 1589.43 581.12 1578.78 596.32 1565.89 611.51 1552.74 626.71 1541.35 641.91 1533.48 657.1 1530.33 672.3 1532.39 687.49 1539.34 702.69 1550.11 717.89 1563.05 733.08 1576.17 748.28 1587.44 763.48 1595.14 778.67 1598.08 793.87 1595.81 809.07 1588.67 824.26 1577.77 839.46 1564.79 854.65 1551.71 869.85 1540.55 885.05 1533.03 900.24 1520.02 902.22 1507.01 903.13 1494 902.95 1480.99 901.67 1467.98 899.36 1454.97 896.14 1441.96 892.14 1428.95 887.56 1415.94 882.63 1402.93 877.57 1389.92 872.62 1376.91 868.03 1363.9 864.01 1350.9 860.74 1337.89 858.39 1324.88 857.07 1311.87 856.84 1298.86 857.71 1285.85 859.64 1272.84 862.54 1259.83 866.27 1246.82 870.66 1233.81 875.48 1220.8 880.52 1207.79 885.54 1194.78 890.29 1181.77 894.55 1168.76 898.12 1155.75 900.83 1142.74 902.55 1129.73 903.19 1116.73 902.73 1103.72 901.19 1090.71 898.64 1077.7 895.2 1064.69 891.04 1051.68 886.36 1038.67 881.37 1025.66 876.31 1012.65 871.43 999.64 866.96 986.63 863.11 973.62 860.06 960.61 857.96 947.6 856.91 934.59 856.96 921.58 858.1 908.57 860.28 895.56 863.4 882.56 867.32 869.55 871.83 856.54 876.73 843.53 881.79 830.52 886.76 817.51 891.41 804.5 895.52 791.49 898.89 778.48 901.36 765.47 902.81 752.46 903.18 739.45 902.45 726.44 900.64 713.43 897.86 700.42 894.22 687.41 889.91 674.4 885.13 661.4 880.1 648.39 875.07 635.38 870.27 622.37 865.94 609.36 862.27 596.35 859.45 583.34 857.6 570.33 856.82 557.32 857.14 544.31 858.55 531.3 860.98 518.29 864.31 505.28 868.39 492.27 873.03 479.26 877.99 466.25 883.05 453.24 887.96 440.24 892.5 427.23 896.44 414.22 899.59 401.21 901.82 388.2 903.01 375.19 903.1 362.18 902.09 349.17 900.03 336.16 897.02 323.15 893.2 310.14 888.75 297.13 883.89 284.12 878.84 271.11 873.84 258.1 869.14 245.09 864.95 232.09 861.48 219.08 858.89 206.07 857.3 193.06 856.8 180.05 857.39 167.04 859.07 154.03 861.73 141.02 865.27 128.01 869.51 115 874.24 101.99 879.25 88.98 884.3 75.97 889.14 62.96 893.54 49.95 897.3 36.95 900.24 23.94 902.22 10.93 903.13 -2.07 902.95 -15.08 901.67 -28.09 899.37 -41.1 896.14 -54.11 892.14 -67.12 887.57 -80.13 882.63 -93.14 877.57 -106.15 872.63 -119.16 868.03 -132.17 864.01 -134.58 849.16 -138.17 834.32 -142.38 819.47 -146.55 804.63 -150.05 789.78 -152.35 774.94 -153.08 760.09 -152.13 745.25 -149.66 730.4 -146.03 715.56 -141.82 700.71 -137.66 685.87 -134.19 671.02 -131.96 656.18 -131.3 641.33 -132.31 626.49 -134.84 611.64 -138.5 596.8 -142.73 581.95 -146.87 567.11 -150.3 552.26 -152.47 537.42 -153.06 522.57 -151.98 507.73 -149.4 492.88 -145.7 478.04 -141.46 463.19 -137.34 448.35 -133.96 433.5 -131.84 418.66 -131.32 403.82 -132.47 388.97 -135.11 374.13 -138.84 359.28 -143.08 344.44 -147.19 329.59 -150.53 314.75 -152.58 299.9 -153.04 285.06 -151.82 270.21 -149.13 255.37 -145.36 240.52 -141.11 225.68 -137.02 210.83 -133.73 195.99 -131.74 181.14 -131.35 166.3 -132.63 151.45 -135.38 136.61 -139.18 121.76 -143.44 106.92 -147.5 92.07 -150.75 77.23 -152.68 62.38 -153 47.54 -151.65 32.69 -148.85 17.85 -145.02 3 -140.76 -11.83 -136.71 -26.68 -133.51 -41.52 -131.64 -56.37 -131.39 -71.21 -132.81 -86.06" fill="url(#uuunion-grad)"></path><path d="M-132.82 -86.06Q-131.4 -71.21 -131.65 -56.37 -133.52 -41.52 -136.72 -26.68 -140.77 -11.84 -145.03 3 -148.86 17.84 -151.66 32.69 -153.01 47.53 -152.69 62.38 -150.76 77.22 -147.51 92.07 -143.45 106.91 -139.19 121.76 -135.39 136.6 -132.64 151.45 -131.36 166.29 -131.75 181.14 -133.74 195.98 -137.03 210.83 -141.12 225.67 -145.37 240.52 -149.14 255.36 -151.83 270.21 -153.05 285.05 -152.59 299.9 -150.54 314.74 -147.2 329.59 -143.09 344.43 -138.85 359.28 -135.12 374.12 -132.48 388.97 -123.8 390.77 -115.12 392.76 -106.44 394.91 -97.76 397.17 -89.08 399.49 -80.4 401.81 -71.72 404.1 -63.04 406.3 -54.36 408.37 -45.68 410.26 -37 411.93 -28.32 413.35 -10.96 415.16 6.38 416 13.37 414.22 29.43 408.42 39.97 403.9 50.51 398.96 61.06 393.64 71.61 388.04 82.19 382.23 92.79 376.29 103.42 370.34 114.08 364.45 124.78 358.71 135.52 353.22 146.31 348.05 157.15 343.27 168.03 338.92 178.96 335.05 189.95 331.67 200.98 328.79 212.06 326.41 223.19 324.49 234.37 322.98 245.59 321.85 256.85 321.01 268.14 320.39 279.47 319.9 290.82 319.46 302.19 318.99 313.58 318.38 324.98 317.57 336.39 316.47 347.79 315.02 359.19 313.17 370.58 310.88 381.94 308.12 393.28 304.88 404.59 301.18 415.87 297.03 427.1 292.47 438.29 287.56 449.44 282.34 460.52 276.89 471.56 271.3 482.53 265.64 493.45 259.99 504.3 254.44 515.09 249.07 525.82 243.96 536.49 239.15 547.1 234.72 557.65 230.69 568.15 227.1 578.6 223.96 589 221.26 599.36 218.99 609.68 217.12 619.98 215.6 630.25 214.38 640.51 213.39 650.76 212.57 661.01 211.82 671.27 211.08 681.54 210.27 691.84 209.31 702.17 208.13 712.54 206.67 722.96 204.88 733.44 202.71 743.98 200.13 754.6 197.13 765.3 193.72 776.08 189.89 786.96 185.69 797.94 181.14 809.02 176.29 820.2 171.21 831.5 165.97 842.91 160.62 854.43 155.25 866.06 149.93 877.81 144.73 889.67 139.71 901.65 134.95 913.72 130.49 925.9 126.38 938.18 122.64 950.54 119.28 962.99 116.33 975.51 113.76 988.1 111.55 1000.74 109.68 1013.43 108.09 1026.16 106.74 1038.91 105.57 1051.67 104.5 1064.42 103.48 1077.17 102.43 1089.88 101.28 1102.56 99.96 1115.18 98.43 1127.74 96.63 1140.22 94.52 1152.61 92.07 1164.89 89.25 1177.06 86.07 1189.11 82.52 1201.01 78.63 1212.78 74.41 1224.39 69.92 1235.84 65.2 1247.12 60.29 1258.24 55.27 1269.17 50.2 1279.93 45.13 1290.51 40.14 1300.9 35.29 1311.12 30.62 1321.16 26.19 1331.02 22.05 1340.72 18.22 1350.26 14.71 1359.65 11.55 1368.89 8.73 1378 6.24 1386.99 4.05 1395.87 2.12 1404.65 0.43 1413.35 -1.08 1422 -2.47 1408.59 -19.91 1397.98 -37.34 1392.37 -54.78 1392.93 -72.21 1399.55 -89.65 1410.85 -107.08 1424.47 -124.52 1437.57 -141.95 1425.09 -143.45 1412.61 -144.8 1400.13 -145.96 1387.65 -146.88 1375.17 -147.52 1362.69 -147.85 1350.22 -147.86 1337.74 -147.56 1325.26 -146.94 1312.78 -146.05 1300.3 -144.91 1287.82 -143.57 1275.34 -142.08 1262.86 -140.51 1250.38 -138.92 1237.9 -137.37 1225.42 -135.93 1212.94 -134.66 1200.46 -133.6 1187.98 -132.8 1175.5 -132.29 1163.02 -132.1 1150.54 -132.22 1138.07 -132.67 1125.59 -133.41 1113.11 -134.41 1100.63 -135.65 1088.15 -137.06 1075.67 -138.59 1063.19 -140.17 1050.71 -141.75 1038.23 -143.26 1025.75 -144.64 1013.27 -145.82 1000.79 -146.78 988.31 -147.45 975.83 -147.82 963.35 -147.88 950.87 -147.61 938.4 -147.04 925.92 -146.18 913.44 -145.07 900.96 -143.75 888.48 -142.28 876 -140.72 863.52 -139.12 851.04 -137.57 838.56 -136.11 826.08 -134.81 813.6 -133.72 801.12 -132.89 788.64 -132.34 776.16 -132.1 763.68 -132.19 751.2 -132.59 738.72 -133.29 726.25 -134.27 713.77 -135.48 701.29 -136.87 688.81 -138.38 676.33 -139.97 663.85 -141.55 651.37 -143.07 638.89 -144.47 626.41 -145.68 613.93 -146.67 601.45 -147.38 588.97 -147.79 576.49 -147.89 564.01 -147.66 551.53 -147.13 539.05 -146.3 526.58 -145.22 514.1 -143.93 501.62 -142.47 489.14 -140.92 476.66 -139.33 464.18 -137.76 451.7 -136.29 439.22 -134.97 426.74 -133.85 414.26 -132.98 401.78 -132.39 389.3 -132.12 376.82 -132.16 364.34 -132.52 351.86 -133.19 339.38 -134.13 326.9 -135.31 314.43 -136.68 301.95 -138.18 289.47 -139.76 276.99 -141.35 264.51 -142.88 252.03 -144.3 239.55 -145.54 227.07 -146.56 214.59 -147.3 202.11 -147.76 189.63 -147.89 177.15 -147.71 164.67 -147.21 152.19 -146.42 139.71 -145.37 127.23 -144.1 114.76 -142.67 102.28 -141.12 89.8 -139.53 77.32 -137.96 64.84 -136.47 52.36 -135.13 39.88 -133.98 27.4 -133.07 14.92 -132.45 2.44 -132.13 -10.03 -132.14 -22.51 -132.46 -34.99 -133.09 -47.47 -133.99 -59.95 -135.15 -72.43 -136.49 -84.91 -137.98 -97.38 -139.56 -109.86 -141.15 -122.34 -142.69 -134.82 -144.12 -149.99 -138.39 -145.39 -116.31 -138.58 -101.2 -132.82 -86.06" fill="url(#uuunion-grad2)" filter="url(#uuunion-blur)"></path><path d="M1447.44 316.33Q1456.52 318.45 1465.61 320.6 1474.69 322.74 1483.77 324.82 1492.86 326.8 1501.94 328.64 1511.03 330.29 1520.11 331.73 1529.2 332.91 1538.28 333.82 1547.36 334.44 1556.45 334.76 1565.53 334.76 1574.62 334.44 1582.71 342.23 1566.99 368.37 1551.69 386.1 1538.99 403.83 1531.54 421.56 1530.9 439.29 1537.19 457.02 1549.11 474.75 1564.18 492.47 1579.24 510.2 1591.17 527.93 1597.48 545.66 1596.86 563.39 1589.43 581.12 1576.74 598.85 1561.44 616.58 1546.71 634.31 1535.63 652.04 1530.49 669.77 1532.39 687.49 1540.91 705.22 1554.28 722.95 1569.72 740.68 1584 758.41 1594.16 776.14 1598.08 793.87 1594.94 811.6 1585.39 829.33 1571.42 847.06 1555.95 864.79 1542.2 882.51 1533.03 900.24 1521.09 902.09 1509.16 903.06 1497.23 903.1 1485.3 902.21 1473.36 900.44 1461.43 897.85 1449.5 894.54 1437.56 890.65 1425.63 886.33 1413.7 881.76 1401.77 877.12 1389.83 872.59 1377.9 868.36 1365.97 864.6 1354.03 861.45 1342.1 859.05 1330.17 857.48 1318.23 856.82 1306.3 857.08 1294.37 858.26 1282.44 860.32 1270.5 863.16 1258.57 866.67 1246.64 870.72 1234.7 875.14 1222.77 879.76 1210.84 884.38 1198.9 888.83 1186.97 892.92 1175.04 896.5 1163.11 899.42 1151.17 901.55 1139.24 902.83 1127.31 903.19 1115.37 902.62 1103.44 901.15 1091.51 898.82 1079.57 895.75 1067.64 892.04 1055.71 887.85 1043.78 883.35 1031.84 878.71 1019.91 874.12 1007.98 869.77 996.04 865.83 984.11 862.45 972.18 859.78 960.24 857.92 948.31 856.94 936.38 856.89 924.45 857.76 912.51 859.52 900.58 862.1 888.65 865.4 876.71 869.28 864.78 873.59 852.85 878.16 840.91 882.8 828.98 887.33 817.05 891.57 805.12 895.34 793.18 898.5 781.25 900.91 769.32 902.49 757.38 903.17 745.45 902.92 733.52 901.75 721.59 899.71 709.65 896.88 697.72 893.38 685.79 889.33 673.85 884.92 661.92 880.31 649.99 875.68 638.05 871.23 626.12 867.13 614.19 863.54 602.26 860.61 590.32 858.46 578.39 857.17 566.46 856.8 554.52 857.35 542.59 858.82 530.66 861.12 518.72 864.19 506.79 867.89 494.86 872.07 482.93 876.57 470.99 881.21 459.06 885.8 447.13 890.16 435.19 894.1 423.26 897.49 411.33 900.17 399.39 902.05 387.46 903.04 375.53 903.11 363.6 902.25 351.66 900.51 339.73 897.94 327.8 894.65 315.86 890.77 303.93 886.47 292 881.9 280.06 877.26 268.13 872.73 256.2 868.49 244.27 864.7 232.33 861.54 220.4 859.11 208.47 857.52 196.53 856.82 184.6 857.06 172.67 858.21 160.73 860.24 148.8 863.06 136.87 866.56 124.94 870.59 113 875 101.07 879.61 89.14 884.24 77.2 888.7 65.27 892.8 53.34 896.4 41.4 899.34 29.47 901.5 11.09 897.92 3.29 882.89 1.64 872.74 -0.18 862.59 -2.06 852.44 -3.88 842.29 -5.89 827.07 -5.77 822 6.39 815.19 18.78 807.5 31.38 798.99 44.15 789.75 57.07 779.93 70.12 769.67 83.27 759.15 96.48 748.54 109.71 738.03 122.94 727.8 136.13 718.01 149.26 708.8 162.31 700.29 175.25 692.57 188.08 685.7 200.79 679.69 213.38 674.52 225.86 670.15 238.24 666.48 250.53 663.4 262.75 660.78 274.94 658.45 287.11 656.26 299.29 654.03 311.51 651.59 323.8 648.79 336.16 645.48 348.63 641.56 361.22 636.92 373.93 631.51 386.76 625.29 399.72 618.29 412.8 610.52 425.97 602.08 439.22 593.04 452.53 583.54 465.85 573.72 479.17 563.73 492.44 553.72 505.62 543.86 518.69 534.29 531.61 525.15 544.36 516.55 556.9 508.59 569.22 501.33 581.31 494.81 593.16 489.02 604.78 483.95 616.19 479.54 627.39 475.7 638.43 472.32 649.34 469.29 660.16 466.45 670.93 463.68 681.72 460.82 692.57 457.73 703.54 454.28 714.68 450.36 726.05 445.88 737.69 440.77 749.65 434.99 761.94 428.53 774.61 421.4 787.65 413.65 797.36 410.89 807.09 407.82 816.84 404.5 826.62 400.98 836.41 397.31 846.23 393.55 856.07 389.77 865.94 386.04 875.83 382.41 885.74 378.95 895.68 375.71 905.65 372.74 915.63 370.09 925.65 367.78 935.68 365.85 945.75 364.31 955.83 363.17 965.95 362.42 976.08 362.05 986.24 362.04 996.42 362.35 1006.63 362.95 1016.86 363.79 1027.12 364.81 1037.39 365.95 1047.69 367.16 1058.01 368.37 1068.35 369.52 1078.72 370.56 1089.1 371.41 1099.5 372.03 1109.92 372.38 1120.36 372.41 1130.81 372.09 1141.28 371.4 1151.77 370.32 1162.27 368.86 1172.79 367.01 1183.32 364.8 1193.86 362.24 1204.41 359.38 1214.97 356.26 1225.54 352.92 1236.12 349.41 1246.7 345.8 1257.29 342.14 1267.88 338.5 1278.48 334.93 1289.08 331.5 1299.68 328.25 1310.28 325.25 1320.87 322.52 1331.47 320.12 1342.06 318.06 1352.64 316.37 1363.22 315.06 1373.79 314.13 1384.35 313.56 1394.9 313.35 1405.44 313.46 1415.96 313.86 1426.47 314.5 1436.96 315.34 1447.44 316.33" fill="url(#uuunion-grad3)" filter="url(#uuunion-blur2)"></path></svg>